# xmcd CD database file
#
# Track frame offsets:
#	150
#	10797
#	21093
#	34410
#	47202
#	59199
#	68984
#	79051
#	91610
#	102854
#	115282
#	126881
#	140855
#	150056
#	162403
#
# Disc length: 2423 seconds
#
# Revision: 1
# Processed by: cddbd v1.5.2PL0 Copyright (c) Steve Scherf et al.
# Submitted via: CDex 1.70beta2
#
DISCID=c709750f
DTITLE=County Love - County Love
DYEAR=2011
DGENRE=Country
TTITLE0=Dream Baby - Waylon Jennings
TTITLE1=Blame It On The Times - Willie Nelson
TTITLE2=Come Live With Me - Roy Clark
TTITLE3=Dallas - Billie Jo Spears
TTITLE4=Among My Souvenirs - Connie Francis
TTITLE5=House Down The Block - Buck Owens
TTITLE6=In The Jailhouse Now - Webb Pierce
TTITLE7=Moonlight Gambler - Frankie Laine
TTITLE8=On The Lonely Side Of Town - Kitty Wells
TTITLE9=Pinball Millionaire - Hank Locklin
TTITLE10=Skip A Rope - The Jordainaires
TTITLE11=Stand By Your Man - Diana Trask
TTITLE12=This Road That I Walk - Conway Twitty
TTITLE13=When Love Is Gone - Bobby Bare
TTITLE14=You've Lost That Lovin' Feelin' - Glen Campbell
EXTD=YEAR: 2011
EXTT0=
EXTT1=
EXTT2=
EXTT3=
EXTT4=
EXTT5=
EXTT6=
EXTT7=
EXTT8=
EXTT9=
EXTT10=
EXTT11=
EXTT12=
EXTT13=
EXTT14=
PLAYORDER=
